<?xml version="1.0" standalone="no"?>
<!DOCTYPE svg PUBLIC "-//W3C//DTD SVG 20010904//EN"
 "http://www.w3.org/TR/2001/REC-SVG-20010904/DTD/svg10.dtd">
<svg version="1.0" xmlns="http://www.w3.org/2000/svg"
 width="381.000000pt" height="336.000000pt" viewBox="0 0 381.000000 336.000000"
 preserveAspectRatio="xMidYMid meet">
<g transform="translate(0.000000,336.000000) scale(0.100000,-0.100000)"
fill="#ffffff" stroke="none">
<path d="M1205 2909 c-69 -24 -105 -43 -105 -56 0 -7 -5 -13 -10 -13 -6 0 -15
-12 -20 -26 -8 -20 -15 -24 -31 -19 -18 6 -19 5 -8 -13 18 -28 5 -55 -23 -48
-13 3 -17 3 -10 0 16 -8 15 -34 -3 -58 -8 -11 -15 -31 -15 -46 0 -14 -6 -34
-14 -45 -7 -11 -16 -31 -20 -45 -10 -34 -76 -211 -87 -232 -5 -10 -9 -23 -9
-30 0 -6 -14 -40 -31 -75 -18 -37 -29 -72 -26 -84 6 -24 -1 -49 -14 -49 -5 0
-9 6 -9 14 0 8 -5 18 -11 22 -9 5 -10 -8 -7 -47 6 -54 5 -55 -52 -184 -40 -90
-65 -161 -74 -216 -4 -21 -15 -48 -26 -62 -11 -14 -20 -37 -20 -51 0 -29 -9
-33 -29 -13 -11 10 -13 3 -8 -37 4 -42 2 -49 -15 -54 -16 -4 -19 -11 -14 -34
5 -26 1 -42 -26 -88 -4 -8 -13 -26 -19 -40 -6 -14 -17 -38 -25 -53 -8 -16 -14
-35 -14 -42 0 -8 -9 -19 -20 -25 -11 -6 -20 -17 -20 -25 0 -7 -19 -31 -43 -52
-24 -21 -46 -46 -50 -55 -3 -10 -13 -18 -22 -18 -8 0 -15 -7 -15 -15 0 -9 -6
-18 -14 -21 -12 -4 -10 -14 10 -47 13 -23 29 -54 36 -69 7 -16 16 -28 21 -28
4 0 21 -10 37 -21 20 -15 36 -20 55 -15 14 4 29 5 34 2 4 -3 107 -7 228 -11
l221 -5 62 36 c34 19 66 46 72 60 6 13 15 21 19 18 5 -3 16 -1 25 4 14 8 14
10 0 21 -9 8 -16 21 -16 31 0 9 -9 25 -19 34 -11 10 -21 28 -23 40 -2 13 -11
22 -26 24 -20 3 -21 7 -16 43 6 35 4 39 -15 39 -23 0 -28 19 -9 38 8 8 8 15 0
25 -26 31 20 152 67 177 11 6 89 10 185 10 162 0 165 0 195 -26 17 -14 31 -32
31 -40 0 -8 7 -25 15 -37 24 -37 17 -135 -11 -158 -8 -6 -14 -24 -14 -40 0
-18 -7 -32 -21 -40 -11 -6 -30 -30 -40 -54 l-19 -43 25 -48 c34 -64 44 -74 70
-74 12 0 29 -9 36 -20 14 -20 21 -20 344 -12 182 4 337 5 345 1 20 -9 46 5 95
54 22 21 50 43 62 48 29 11 29 26 2 34 -18 6 -19 9 -6 23 8 10 17 25 20 34 8
21 -9 34 -17 13 -7 -19 -26 -20 -26 0 0 7 -8 19 -17 24 -17 10 -17 12 0 25 17
13 16 15 -11 21 -20 4 -40 20 -58 48 -16 23 -27 46 -26 51 2 4 -6 23 -17 41
-12 20 -17 42 -14 56 5 18 3 21 -10 16 -13 -5 -18 5 -27 51 -6 31 -16 71 -22
87 -5 17 -16 53 -23 81 -7 28 -17 60 -24 72 -6 11 -11 34 -11 51 0 22 -5 31
-16 31 -12 0 -15 6 -11 21 3 12 0 40 -8 63 -29 90 -65 215 -65 228 0 7 -9 29
-19 49 -11 21 -17 46 -14 62 3 17 -2 36 -16 56 -12 16 -21 40 -21 53 0 12 -7
32 -15 42 -8 11 -15 32 -15 47 0 14 -16 65 -35 113 -25 61 -33 95 -29 116 5
20 1 38 -12 57 -11 16 -19 35 -19 43 -1 42 -50 168 -78 197 -18 19 -27 38 -24
47 5 12 -9 23 -51 43 -53 26 -67 28 -197 30 -77 1 -153 -2 -170 -8z m370 -123
c2 -11 6 -34 8 -51 3 -16 9 -43 15 -60 10 -29 17 -53 57 -190 10 -33 23 -78
30 -100 6 -22 20 -67 29 -100 10 -33 22 -73 28 -90 5 -16 13 -43 18 -60 17
-64 39 -141 49 -170 10 -33 29 -97 56 -190 9 -33 21 -73 27 -90 5 -16 14 -46
18 -65 4 -19 13 -48 18 -65 6 -16 18 -57 28 -90 9 -33 23 -78 29 -100 7 -22
21 -67 30 -100 10 -33 24 -75 31 -93 8 -18 14 -40 14 -48 0 -33 70 -114 98
-114 8 0 29 -9 47 -20 28 -17 33 -26 33 -60 1 -24 -4 -40 -11 -40 -260 -5
-802 1 -809 8 -14 14 -5 74 12 83 8 4 37 16 65 26 44 17 51 24 66 66 9 25 15
48 12 50 -2 2 -10 40 -17 83 -11 63 -38 184 -62 272 -3 10 -68 12 -301 10
l-297 -3 -8 -45 c-4 -25 -12 -54 -16 -65 -42 -95 -66 -243 -50 -298 14 -46 26
-57 97 -82 55 -20 56 -21 58 -63 2 -28 -1 -42 -10 -43 -112 -5 -633 3 -639 9
-5 5 -8 24 -6 43 3 30 8 35 56 54 30 12 66 34 82 48 27 26 82 130 113 212 24
66 44 117 62 165 9 25 23 62 31 83 8 20 21 55 29 77 8 22 22 58 30 80 8 22 21
57 29 78 8 20 29 75 46 122 82 219 104 274 112 285 4 5 8 18 8 30 0 11 7 29
15 39 8 11 15 27 15 35 0 17 43 127 54 138 3 3 6 16 6 27 0 12 7 30 15 40 8
11 15 27 15 35 0 9 20 66 45 126 25 61 45 119 45 130 0 11 8 30 18 42 16 22
24 23 202 25 102 2 193 1 203 -1 9 -2 19 -13 22 -25z m-125 -1697 c0 -5 -7 -9
-15 -9 -15 0 -20 12 -9 23 8 8 24 -1 24 -14z"/>
<path d="M1222 2404 c-5 -11 -15 -41 -22 -69 -23 -93 -156 -482 -178 -522 -7
-12 -12 -29 -12 -38 0 -8 -13 -40 -29 -70 -16 -29 -26 -56 -23 -59 8 -8 487
-7 495 1 4 3 3 11 -1 17 -5 6 -19 40 -31 76 -12 36 -27 79 -32 95 -6 17 -14
46 -19 65 -4 19 -15 62 -25 95 -45 156 -77 286 -85 344 -9 71 -23 94 -38 65z
m38 -490 c5 -22 14 -58 20 -81 15 -52 8 -73 -23 -73 -13 0 -28 -5 -33 -10 -16
-16 -64 9 -64 32 0 10 -6 27 -12 38 -10 16 -10 24 0 38 7 9 15 25 18 35 4 9
15 17 25 17 12 0 19 7 19 20 0 11 -7 20 -15 20 -18 0 -19 5 -4 32 11 20 11 20
36 -5 14 -13 29 -42 33 -63z"/>
<path d="M2469 2907 c-74 -21 -149 -94 -149 -144 0 -33 26 -83 64 -119 71 -70
66 2 68 -978 0 -773 -1 -886 -15 -912 -19 -36 -92 -114 -108 -114 -6 0 -9 -6
-6 -13 6 -15 -37 -59 -67 -70 -18 -7 -18 -8 0 -28 18 -20 18 -21 0 -34 -18
-13 -18 -15 3 -43 12 -17 21 -39 21 -50 0 -10 7 -34 17 -52 15 -31 17 -32 29
-15 16 21 16 21 38 -22 14 -28 22 -33 52 -33 19 0 46 -8 61 -17 25 -17 27 -17
41 5 15 23 46 29 57 12 4 -6 20 0 39 15 18 14 46 25 62 25 19 0 42 12 65 33
71 66 126 107 143 107 9 0 16 7 16 15 0 9 10 19 23 24 21 8 66 69 101 138 9
18 22 33 29 33 16 0 48 107 54 180 3 30 8 420 11 865 6 661 10 815 21 835 22
41 84 120 94 120 5 0 20 9 34 20 19 15 21 20 9 20 -18 0 -22 40 -6 70 8 16 4
25 -23 52 -18 18 -53 44 -78 58 -44 25 -44 25 -349 27 -223 2 -317 -1 -351
-10z m714 -97 c4 0 7 -18 7 -39 0 -32 -5 -43 -29 -60 -16 -12 -37 -21 -46 -21
-28 0 -54 -19 -72 -53 -17 -30 -18 -97 -23 -912 -6 -863 -6 -881 -27 -942 -37
-111 -95 -187 -197 -263 -74 -54 -88 -63 -146 -90 -25 -12 -58 -28 -73 -35
-16 -8 -37 -15 -47 -15 -10 0 -25 -6 -32 -13 -34 -35 -108 -26 -108 12 0 23
-39 114 -53 122 -16 11 0 38 30 50 122 50 164 94 182 194 16 88 16 1857 0
1887 -15 28 -50 57 -69 58 -8 0 -30 9 -47 20 -28 17 -33 25 -33 59 0 22 4 41
10 43 7 2 710 1 773 -2z m55 -111 c-2 -6 -8 -10 -13 -10 -5 0 -11 4 -13 10 -2
6 4 11 13 11 9 0 15 -5 13 -11z m-538 -2339 c0 -5 -7 -10 -15 -10 -8 0 -15 5
-15 10 0 6 7 10 15 10 8 0 15 -4 15 -10z"/>
<path d="M2238 1108 c9 -9 15 -9 24 0 9 9 7 12 -12 12 -19 0 -21 -3 -12 -12z"/>
<path d="M945 790 c3 -5 13 -10 21 -10 8 0 12 5 9 10 -3 6 -13 10 -21 10 -8 0
-12 -4 -9 -10z"/>
<path d="M2842 398 c6 -18 28 -21 28 -4 0 9 -7 16 -16 16 -9 0 -14 -5 -12 -12z"/>
</g>
</svg>
